<?xml version="1.0" encoding="UTF-8"?>
<svg id="Layer_1" data-name="Layer 1" xmlns="http://www.w3.org/2000/svg" viewBox="0 0 494.82 75.39">
  <defs>
    <style>
      .cls-1 {
        fill: #fff;
      }

      .cls-2 {
        fill: #f15a29;
      }
    </style>
  </defs>
  <path class="cls-1" d="M44.3,52.71c0,.38-.25,.87-.74,1.48-4.31,5.13-10.04,7.7-17.19,7.7s-13.24-2.5-17.79-7.49c-4.43-4.83-6.64-10.92-6.64-18.28s2.17-13.17,6.5-18.14c4.52-5.2,10.28-7.8,17.26-7.8,7.59,0,13.55,2.33,17.86,7,.47,.52,.7,.97,.7,1.37,0,.45-.81,2.1-2.44,4.96-1.63,2.86-2.65,4.46-3.08,4.82-.19,.19-.42,.28-.7,.28-.12,0-.7-.47-1.76-1.41-1.27-1.12-2.51-2-3.73-2.64-1.85-.94-3.77-1.41-5.77-1.41-3.45,0-6.2,1.29-8.26,3.87-1.9,2.39-2.85,5.34-2.85,8.86s.95,6.55,2.85,8.96c2.06,2.62,4.82,3.94,8.26,3.94,2.04,0,3.97-.44,5.8-1.34,1.2-.58,2.41-1.41,3.66-2.46,1.03-.89,1.6-1.34,1.72-1.34,.23,0,.47,.13,.7,.39,.37,.42,1.39,1.89,3.06,4.39,1.71,2.6,2.57,4.03,2.57,4.29Z"/>
  <path class="cls-1" d="M96.93,36.05c0,7.31-2.33,13.44-7,18.39-4.76,5.02-10.78,7.52-18.07,7.52s-13.25-2.53-18.04-7.59c-4.69-4.94-7.03-11.05-7.03-18.32s2.34-13.42,7.03-18.39c4.78-5.09,10.79-7.63,18.04-7.63s13.2,2.54,18,7.63c4.71,5.02,7.07,11.14,7.07,18.39Zm-13.32-.07c0-3.52-1.07-6.5-3.2-8.96-2.23-2.58-5.07-3.87-8.54-3.87s-6.11,1.34-8.4,4.01c-2.23,2.58-3.34,5.54-3.34,8.89,0,3.59,1.04,6.57,3.13,8.96,2.2,2.51,5.07,3.76,8.61,3.76,3.3,0,6.12-1.32,8.44-3.97,2.2-2.53,3.3-5.47,3.3-8.82Z"/>
  <path class="cls-1" d="M148.04,35.73c0,6.89-2.21,12.87-6.64,17.93-3.91,4.52-9.41,6.9-16.49,7.14-1.36,.05-5.1,.07-11.21,.07-1.15,0-2.88-.04-5.19-.11-2.31-.07-4.04-.11-5.19-.11-.68,0-1.02-.27-1.02-.81,0-2.58,.1-6.45,.3-11.62,.2-5.17,.3-9.04,.3-11.62s-.1-6.73-.3-12.11c-.2-5.38-.3-9.4-.3-12.08,0-.49,.34-.79,1.02-.88,1.66-.19,4.39-.28,8.19-.28,7.22,0,11.89,.11,14.03,.32,5.55,.56,9.9,1.97,13.04,4.22,2.95,2.11,5.29,5.06,7,8.86,1.64,3.59,2.46,7.28,2.46,11.07Zm-13.46,0c0-3.96-1.18-7.19-3.55-9.7-2.39-2.6-5.55-3.9-9.49-3.9-3.61,0-5.41,.48-5.41,1.44,0,1.38-.02,3.46-.07,6.24-.05,2.78-.07,4.86-.07,6.24s.02,3.41,.07,6.13c.05,2.73,.07,4.79,.07,6.17,0,1.01,1.88,1.51,5.62,1.51,4.05,0,7.24-1.35,9.56-4.04,2.18-2.55,3.27-5.92,3.27-10.09Z"/>
  <path class="cls-1" d="M189.49,49.72c0,1.01-.2,2.86-.6,5.55-.42,2.93-.8,4.68-1.12,5.24-.28,.45-.67,.67-1.16,.67-.21,0-.56-.04-1.05-.11-1.71-.23-6.7-.35-14.98-.35-1.81,0-4.49-.01-8.05-.04-3.56-.02-6.23-.04-8.02-.04-.77,0-1.16-.34-1.16-1.02,0-2.62,.15-6.57,.44-11.83,.29-5.26,.44-9.21,.44-11.83s-.14-7.65-.42-14.94c-.07-1.88-.2-4.68-.39-8.4l-.04-.49c-.05-.54,.25-.81,.88-.81,1.73,0,4.34,.05,7.82,.14,3.48,.09,6.09,.14,7.82,.14s4.29-.05,7.73-.14c3.45-.09,6.02-.14,7.73-.14,1.22,0,1.92,.46,2.11,1.37,.12,.54,.3,2.17,.54,4.9,.25,2.73,.37,4.39,.37,4.97,0,.49-.23,.74-.7,.74-.14,0-.39-.01-.74-.04-6.23-.52-11.84-.77-16.8-.77-1.24,0-2,.29-2.29,.88-.12,.28-.18,1.18-.18,2.71s.23,2.65,.7,3.16c.4,.45,1.16,.67,2.29,.67,.23,0,.69-.02,1.37-.05,.68-.04,1.24-.05,1.69-.05,2.95,0,5.94-.08,8.96-.25,.26-.02,.9-.08,1.93-.18,.8-.09,1.43-.14,1.9-.14,.56,0,.84,.27,.84,.81,0-.49-.21,1.3-.63,5.38-.19,1.88-.28,3.75-.28,5.62,0,.47-.34,.7-1.02,.7l-3.16-.35c-1.34-.14-4.38-.21-9.14-.21h-3.73c-.96,0-1.52,.23-1.69,.7-.02,.12-.04,.84-.04,2.18,0,1.78,.12,2.93,.35,3.45,.4,.89,1.9,1.42,4.5,1.58-.05,0,1.66,0,5.13,0,1.24,0,3.09-.11,5.54-.33,2.45-.22,4.28-.33,5.5-.33,.52,0,.77,.42,.77,1.27Z"/>
  <path class="cls-2" d="M250.03,60.8c-3.16,0-4.97-.05-5.41-.14-.45-.09-.82-.43-1.12-1.02-2.67-5.27-5.36-10.56-8.05-15.86-4.24-8.51-6.36-13.32-6.36-14.45,0-1.85,.06-4.63,.19-8.35,.13-3.71,.19-6.5,.19-8.35,0-.87,.23-1.3,.7-1.3,1.41,0,3.54,.06,6.4,.18,2.86,.12,5,.18,6.43,.18,.59,0,.88,.25,.88,.74,0,1.9-.13,4.75-.4,8.56-.27,3.81-.4,6.66-.4,8.56,0,1.45,2.38,6.64,7.14,15.57,1.29-2.32,2.75-5.17,4.39-8.54,2.2-4.55,3.3-7.34,3.3-8.37,0-1.71-.02-4.28-.07-7.72-.05-3.43-.07-6.01-.07-7.72,0-.63,.11-.98,.32-1.05h1.12c1.29,0,3.24-.06,5.85-.19,2.61-.13,4.56-.19,5.85-.19,.7,0,1.05,.28,1.05,.84,0,1.81-.03,4.53-.09,8.17-.06,3.64-.09,6.38-.09,8.21,0,1.45-2.31,6.8-6.93,16.03-1.83,3.33-4.46,8.34-7.91,15.05-.23,.52-.39,.8-.47,.86-.08,.06-.38,.11-.9,.16-1.2,.09-3.05,.14-5.55,.14Z"/>
  <path class="cls-2" d="M291.45,34.68c0,2.77,.07,6.93,.21,12.48s.21,9.72,.21,12.48c0,.47-.11,.76-.32,.88-.05,.02-.35,.07-.91,.14-1.52,.19-3.56,.28-6.12,.28-3.42,0-5.6-.09-6.54-.28-.68-.14-1.02-.5-1.02-1.09,0,.38,.11-1.69,.32-6.19,.42-9.49,.63-15.73,.63-18.7,0-2.51-.08-6.27-.25-11.29-.16-5.02-.25-8.78-.25-11.29,0-.52,.27-.77,.81-.77,.73,0,1.82,.04,3.29,.11s2.56,.11,3.29,.11,1.8-.04,3.22-.11,2.49-.11,3.22-.11c.68,0,1.02,.26,1.02,.77,0,2.51-.13,6.27-.4,11.29-.27,5.02-.4,8.78-.4,11.29Z"/>
  <path class="cls-2" d="M344.88,59.53c.05,.63-.28,.95-.98,.95-.45,0-1.73-.26-3.85-.77-2.12-.51-3.43-.87-3.92-1.05-4.9,1.92-9.6,2.88-14.1,2.88-7.24,0-13.18-2.41-17.82-7.24-4.59-4.76-6.89-10.77-6.89-18.04s2.23-13.59,6.68-18.49c4.59-5.06,10.56-7.59,17.89-7.59,3.56,0,6.91,.68,10.05,2.04,3.4,1.5,6.07,3.61,8.02,6.33,.4,.56,.6,.96,.6,1.2,0,.75-1.05,2.43-3.15,5.04-2.1,2.61-3.45,3.92-4.06,3.92-.14,0-.68-.48-1.62-1.44-1.15-1.15-2.32-2.04-3.52-2.67-1.78-.96-3.75-1.44-5.91-1.44-3.52,0-6.3,1.31-8.37,3.94-1.92,2.41-2.88,5.43-2.88,9.04,0,3.82,1,6.84,2.99,9.07,2.06,2.3,4.98,3.45,8.75,3.45,2.39,0,5.06-.6,8.02-1.79-.07-.77-.28-2.74-.63-5.91-.3-2.44-.46-4.41-.46-5.91,0-.44,.15-.71,.46-.81,.12-.05,.3-.07,.56-.07,.68,0,1.71,.06,3.08,.19,1.37,.13,2.41,.19,3.11,.19,.75,0,1.88-.05,3.38-.16s2.62-.16,3.38-.16c.59,0,.88,.39,.88,1.16,0,1.12-.06,2.83-.19,5.1-.13,2.27-.19,3.97-.19,5.1,0,3.02,.22,7.55,.67,13.57l.04,.39Z"/>
  <path class="cls-2" d="M390.13,24.1c0,1.01-.19,1.89-.56,2.64-3.07,6.07-7.25,12.46-12.55,19.16-.75,.98-1.12,1.88-1.12,2.67,0,1.24,.07,3.11,.21,5.59,.14,2.48,.21,4.34,.21,5.55,0,.42-.09,.68-.28,.77-.05,.02-.36,.08-.95,.18-.84,.14-2.95,.21-6.33,.21s-5.57-.07-6.5-.21c-.66-.09-.98-.43-.98-1.02,0-1.24,.11-3.13,.32-5.68,.21-2.54,.32-4.45,.32-5.71,0-.75-.28-1.56-.84-2.43-2.84-4.01-6.89-10.15-12.16-18.42-.54-.91-.81-1.66-.81-2.25,0-1.41-.07-3.52-.21-6.33s-.21-4.92-.21-6.33c0-.77,.23-1.16,.7-1.16,1.43,0,3.6,.06,6.5,.18,2.91,.12,5.09,.18,6.54,.18,.54,0,.81,.18,.81,.53,0,1.2-.05,2.99-.16,5.4-.11,2.4-.16,4.2-.16,5.4,0,.7,1.03,2.46,3.09,5.27,1.64,2.2,2.99,3.9,4.04,5.1,.96-1.12,2.24-2.81,3.83-5.06,2.02-2.81,3.02-4.51,3.02-5.1,0-1.17-.09-2.95-.26-5.33-.18-2.38-.26-4.15-.26-5.33,0-.49,.11-.77,.32-.84h.88c1.41,0,3.52-.06,6.35-.19,2.82-.13,4.95-.19,6.38-.19,.47,0,.7,.5,.7,1.51,0,1.24,.02,3.11,.07,5.61s.07,4.38,.07,5.64Z"/>
  <path class="cls-2" d="M440.89,59.78c0,.42-.29,.72-.88,.88-.7,.19-2.88,.28-6.54,.28-3.35,0-5.51-.09-6.47-.28-.8-.16-1.3-.69-1.51-1.58-.8-3.38-1.42-5.18-1.86-5.41-.38-.16-3.52-.25-9.42-.25-3.98,0-6.11,.11-6.36,.32-.4,.38-.84,1.63-1.34,3.76-.45,1.95-.98,3-1.62,3.16-.8,.19-3.47,.28-8.02,.28-3.59,0-5.38-.34-5.38-1.02,0-.61,2.65-8.1,7.95-22.46,5.74-15.54,8.86-24.08,9.35-25.63,.28-.89,.61-1.34,.98-1.34,.63,0,1.61,.06,2.94,.18,1.32,.12,2.31,.18,2.97,.18s1.56-.04,2.79-.12c1.23-.08,2.15-.12,2.76-.12,.45,0,.86,.39,1.23,1.16,1.15,2.46,4.5,10.9,10.05,25.31,5.58,14.51,8.37,22.08,8.37,22.71Zm-24.93-32.03c-.49,1.03-1.32,3.27-2.5,6.71-1.27,3.66-1.9,5.8-1.9,6.43,0,.42,.7,.66,2.11,.7,.73,.05,1.92,.07,3.59,.07,1.55,0,2.4-.19,2.57-.56,.05-.12,.07-.28,.07-.49,0-.77-.54-2.91-1.62-6.4-1.05-3.38-1.83-5.53-2.32-6.47Z"/>
  <path class="cls-2" d="M491.52,12.42c0,2.67-.11,6.69-.33,12.04-.22,5.36-.33,9.38-.33,12.08v23.17c0,.63-.34,.95-1.02,.95-.56,0-1.41,.02-2.55,.07s-1.99,.07-2.55,.07c-.61,0-1.52-.05-2.74-.14-1.22-.09-2.13-.14-2.74-.14-.42,0-.93-.39-1.51-1.16-1.69-2.27-5.48-7.31-11.39-15.12-1.62-2.18-4.08-5.39-7.38-9.63-.09-.14-.27-.28-.53-.42-.19,.16-.28,.42-.28,.77,0,2.72,.08,6.8,.23,12.23,.15,5.44,.23,9.52,.23,12.23,0,.82-.32,1.23-.95,1.23h-12.16c-.68,0-1.02-.36-1.02-1.09,0-2.53,.12-6.35,.37-11.46,.25-5.11,.37-8.94,.37-11.5,0-2.69-.11-6.73-.33-12.09-.22-5.37-.33-9.39-.33-12.06,0-.52,.46-.77,1.37-.77,1.36,0,3.04-.09,5.03-.28,.47-.05,1.39-.2,2.78-.46,1.17-.21,2.1-.32,2.78-.32,.28,0,.71,.4,1.3,1.2l13.11,17.96c1.17,1.62,2.94,3.98,5.31,7.1,.59,.73,1.09,1.09,1.51,1.09,.3,0,.46-.91,.46-2.74,0-2.46-.13-6.16-.4-11.11-.27-4.94-.4-8.66-.4-11.14,0-.87,.25-1.3,.74-1.3,1.41,0,3.53-.06,6.36-.18,2.84-.12,4.96-.18,6.36-.18,.45,0,.67,.36,.67,1.09Z"/>
</svg>